<mxfile host="app.diagrams.net" agent="Mozilla/5.0 (Windows NT 10.0; Win64; x64) AppleWebKit/537.36 (KHTML, like Gecko) Chrome/135.0.0.0 Safari/537.36" version="26.2.14">
  <diagram id="C5RBs43oDa-KdzZeNtuy" name="Page-1">
    <mxGraphModel dx="1426" dy="743" grid="0" gridSize="10" guides="1" tooltips="1" connect="1" arrows="1" fold="1" page="1" pageScale="1" pageWidth="827" pageHeight="1169" math="0" shadow="0">
      <root>
        <mxCell id="WIyWlLk6GJQsqaUBKTNV-0" />
        <mxCell id="WIyWlLk6GJQsqaUBKTNV-1" parent="WIyWlLk6GJQsqaUBKTNV-0" />
        <mxCell id="yJXN3hRaKdamykfZ5FaT-7" style="edgeStyle=orthogonalEdgeStyle;rounded=0;orthogonalLoop=1;jettySize=auto;html=1;exitX=1;exitY=0.5;exitDx=0;exitDy=0;entryX=0.5;entryY=0;entryDx=0;entryDy=0;" edge="1" parent="WIyWlLk6GJQsqaUBKTNV-1" source="yJXN3hRaKdamykfZ5FaT-0" target="yJXN3hRaKdamykfZ5FaT-1">
          <mxGeometry relative="1" as="geometry" />
        </mxCell>
        <mxCell id="yJXN3hRaKdamykfZ5FaT-0" value="Формирование системных требований" style="rounded=0;whiteSpace=wrap;html=1;fillColor=#dae8fc;strokeColor=#6c8ebf;" vertex="1" parent="WIyWlLk6GJQsqaUBKTNV-1">
          <mxGeometry x="64" y="77" width="120" height="60" as="geometry" />
        </mxCell>
        <mxCell id="yJXN3hRaKdamykfZ5FaT-8" style="edgeStyle=orthogonalEdgeStyle;rounded=0;orthogonalLoop=1;jettySize=auto;html=1;exitX=1;exitY=0.5;exitDx=0;exitDy=0;entryX=0.5;entryY=0;entryDx=0;entryDy=0;" edge="1" parent="WIyWlLk6GJQsqaUBKTNV-1" source="yJXN3hRaKdamykfZ5FaT-1" target="yJXN3hRaKdamykfZ5FaT-2">
          <mxGeometry relative="1" as="geometry" />
        </mxCell>
        <mxCell id="yJXN3hRaKdamykfZ5FaT-1" value="Формирование требований к программному обеспечению" style="rounded=0;whiteSpace=wrap;html=1;fillColor=#f8cecc;strokeColor=#b85450;" vertex="1" parent="WIyWlLk6GJQsqaUBKTNV-1">
          <mxGeometry x="203" y="156" width="120" height="60" as="geometry" />
        </mxCell>
        <mxCell id="yJXN3hRaKdamykfZ5FaT-9" style="edgeStyle=orthogonalEdgeStyle;rounded=0;orthogonalLoop=1;jettySize=auto;html=1;exitX=1;exitY=0.5;exitDx=0;exitDy=0;entryX=0.5;entryY=0;entryDx=0;entryDy=0;" edge="1" parent="WIyWlLk6GJQsqaUBKTNV-1" source="yJXN3hRaKdamykfZ5FaT-2" target="yJXN3hRaKdamykfZ5FaT-3">
          <mxGeometry relative="1" as="geometry" />
        </mxCell>
        <mxCell id="yJXN3hRaKdamykfZ5FaT-2" value="Анализ" style="rounded=0;whiteSpace=wrap;html=1;fillColor=#d5e8d4;strokeColor=#82b366;" vertex="1" parent="WIyWlLk6GJQsqaUBKTNV-1">
          <mxGeometry x="336" y="245" width="120" height="60" as="geometry" />
        </mxCell>
        <mxCell id="yJXN3hRaKdamykfZ5FaT-10" style="edgeStyle=orthogonalEdgeStyle;rounded=0;orthogonalLoop=1;jettySize=auto;html=1;exitX=1;exitY=0.5;exitDx=0;exitDy=0;" edge="1" parent="WIyWlLk6GJQsqaUBKTNV-1" source="yJXN3hRaKdamykfZ5FaT-3" target="yJXN3hRaKdamykfZ5FaT-4">
          <mxGeometry relative="1" as="geometry" />
        </mxCell>
        <mxCell id="yJXN3hRaKdamykfZ5FaT-3" value="Проектирование" style="rounded=0;whiteSpace=wrap;html=1;fillColor=#e1d5e7;strokeColor=#9673a6;" vertex="1" parent="WIyWlLk6GJQsqaUBKTNV-1">
          <mxGeometry x="482" y="333" width="120" height="60" as="geometry" />
        </mxCell>
        <mxCell id="yJXN3hRaKdamykfZ5FaT-11" style="edgeStyle=orthogonalEdgeStyle;rounded=0;orthogonalLoop=1;jettySize=auto;html=1;exitX=1;exitY=0.5;exitDx=0;exitDy=0;entryX=0.5;entryY=0;entryDx=0;entryDy=0;" edge="1" parent="WIyWlLk6GJQsqaUBKTNV-1" source="yJXN3hRaKdamykfZ5FaT-4" target="yJXN3hRaKdamykfZ5FaT-5">
          <mxGeometry relative="1" as="geometry" />
        </mxCell>
        <mxCell id="yJXN3hRaKdamykfZ5FaT-4" value="Кодирование" style="rounded=0;whiteSpace=wrap;html=1;fillColor=#ffe6cc;strokeColor=#d79b00;" vertex="1" parent="WIyWlLk6GJQsqaUBKTNV-1">
          <mxGeometry x="620" y="430" width="120" height="60" as="geometry" />
        </mxCell>
        <mxCell id="yJXN3hRaKdamykfZ5FaT-12" style="edgeStyle=orthogonalEdgeStyle;rounded=0;orthogonalLoop=1;jettySize=auto;html=1;exitX=1;exitY=0.5;exitDx=0;exitDy=0;entryX=0.5;entryY=0;entryDx=0;entryDy=0;" edge="1" parent="WIyWlLk6GJQsqaUBKTNV-1" source="yJXN3hRaKdamykfZ5FaT-5" target="yJXN3hRaKdamykfZ5FaT-6">
          <mxGeometry relative="1" as="geometry" />
        </mxCell>
        <mxCell id="yJXN3hRaKdamykfZ5FaT-5" value="Тестирование" style="rounded=0;whiteSpace=wrap;html=1;fillColor=#fff2cc;strokeColor=#d6b656;" vertex="1" parent="WIyWlLk6GJQsqaUBKTNV-1">
          <mxGeometry x="764" y="522" width="120" height="60" as="geometry" />
        </mxCell>
        <mxCell id="yJXN3hRaKdamykfZ5FaT-6" value="Сопровождение и эксплуатация" style="rounded=0;whiteSpace=wrap;html=1;fillColor=#e6d0de;gradientColor=#d5739d;strokeColor=#996185;" vertex="1" parent="WIyWlLk6GJQsqaUBKTNV-1">
          <mxGeometry x="916" y="607" width="120" height="60" as="geometry" />
        </mxCell>
      </root>
    </mxGraphModel>
  </diagram>
</mxfile>
